<?xml version="1.0" encoding="utf-8"?>
<!-- Designed by Vexels.com - 2016 All Rights Reserved - https://vexels.com/terms-and-conditions/  -->

<svg version="1.1" id="Capa_1" xmlns="http://www.w3.org/2000/svg" xmlns:xlink="http://www.w3.org/1999/xlink" x="0px" y="0px"
	 width="1200px" height="1200px" viewBox="0 0 1200 1200" enable-background="new 0 0 1200 1200" xml:space="preserve">
<path d="M1076.307,875.018V325.006L600.007,50L123.694,325.006v550.012L599.98,1150L1076.307,875.018z M599.98,979.071
	l-437.871-253.39v-78.298L590.373,895.2c0.02,0.012,0.047,0.023,0.067,0.033c0.508,0.288,1.035,0.54,1.57,0.77
	c0.257,0.126,0.487,0.253,0.751,0.344c0.264,0.115,0.562,0.206,0.832,0.286c2.104,0.734,4.256,1.137,6.387,1.137c0,0,0,0,0.027,0
	c0.007,0,0.007,0,0.021,0c2.145,0,4.289-0.391,6.387-1.137c0.277-0.092,0.562-0.171,0.839-0.286c0.251-0.091,0.48-0.229,0.73-0.344
	c0.528-0.241,1.069-0.481,1.577-0.77c0.006-0.01,0.033-0.021,0.054-0.033l428.256-247.816v78.298L599.98,979.071z M590.373,620.182
	c0.02,0,0.047,0.013,0.067,0.024c0.508,0.286,1.035,0.539,1.57,0.768c0.257,0.115,0.487,0.252,0.751,0.355
	c0.264,0.115,0.562,0.196,0.832,0.287c2.104,0.734,4.256,1.136,6.387,1.136c0,0,0,0,0.027,0c0.007,0,0.007,0,0.021,0
	c2.145,0,4.289-0.401,6.387-1.136c0.277-0.103,0.562-0.185,0.839-0.287c0.251-0.104,0.48-0.24,0.73-0.355
	c0.528-0.24,1.069-0.481,1.577-0.768c0.006-0.012,0.033-0.024,0.054-0.024l428.256-247.827v102.46L599.993,728.191L162.109,474.814
	v-102.46L590.373,620.182z M599.98,856.371L162.109,602.994V519.18l428.263,247.816c0.02,0.012,0.047,0.024,0.067,0.036
	c0.508,0.285,1.035,0.538,1.57,0.79c0.257,0.103,0.487,0.241,0.751,0.333c0.264,0.127,0.562,0.194,0.832,0.287
	c2.104,0.732,4.256,1.135,6.387,1.135c0,0,0,0,0.027,0c0.007,0,0.007,0,0.021,0c2.124,0,4.256-0.378,6.34-1.112
	c0.291-0.115,0.608-0.194,0.899-0.31c0.237-0.104,0.453-0.24,0.696-0.321c0.541-0.252,1.09-0.504,1.617-0.802
	c0.014-0.012,0.034-0.024,0.055-0.036l428.27-247.804v83.802L599.98,856.371z M1021.24,337.575L600.007,581.344L178.76,337.575
	L600.007,94.368L1021.24,337.575z M162.109,770.082l428.263,247.817c0.02,0.022,0.047,0.022,0.067,0.046
	c0.508,0.273,1.035,0.527,1.57,0.768c0.257,0.104,0.487,0.252,0.751,0.344c0.264,0.127,0.562,0.196,0.832,0.287
	c2.104,0.734,4.256,1.135,6.387,1.135c0,0,0,0,0.027,0c0.007,0,0.007,0,0.021,0c2.124,0,4.256-0.379,6.34-1.112
	c0.291-0.113,0.608-0.194,0.899-0.31c0.237-0.104,0.453-0.229,0.696-0.31c0.541-0.252,1.09-0.504,1.617-0.802
	c0.014-0.012,0.034-0.023,0.055-0.035l428.27-247.828v82.735l-437.891,252.816L162.13,852.83v-82.748H162.109z"/>
</svg>
